# xmcd
#
# Track frame offsets:
#	182
#	14221
#	26185
#	37076
#	46709
#	60061
#	73519
#	87011
#	101103
#	113420
#	125663
#	138187
#	149251
#	160721
#	173755
#	186881
#	199539
#	213315
#	228039
#	242464
#	255580
#	270621
#
# Disc length: 3793 seconds
#
# Revision: 1
# Processed by: cddbd v1.5.1PL0 Copyright (c) Steve Scherf et al.
# Submitted via: audiograbber 1.83.01
#
DISCID=240ecf16
DTITLE=Jimmy McCracklin - The Chronological 1945-1948
DYEAR=1900
DGENRE=
TTITLE0=Miss Mattie left me
TTITLE1=Mean mistreated Lover
TTITLE2=Highway 101
TTITLE3=Baby don´t you want to go
TTITLE4=Achin´ Heart
TTITLE5=Street Loafin´ Woman
TTITLE6=You deceived me
TTITLE7=Ola May
TTITLE8=She´s a Wino
TTITLE9=Rack and rye - Part 1
TTITLE10=Rock and rye - Part 2
TTITLE11=You had your Chance
TTITLE12=Special for you
TTITLE13=Rock and rye
TTITLE14=Miss Minnie Lee Blues
TTITLE15=Playin´ on me
TTITLE16=Big Foot Mama
TTITLE17=Bad Luck and Trouble
TTITLE18=Railroad Blues
TTITLE19=Jimmy´s Blues
TTITLE20=Bad Condition Blues
TTITLE21=Blues Blasters Shuffle
EXTD=
EXTT0=
EXTT1=
EXTT2=
EXTT3=
EXTT4=
EXTT5=
EXTT6=
EXTT7=
EXTT8=
EXTT9=
EXTT10=
EXTT11=
EXTT12=
EXTT13=
EXTT14=
EXTT15=
EXTT16=
EXTT17=
EXTT18=
EXTT19=
EXTT20=
EXTT21=
PLAYORDER=
